{
	"asset":{
		"version":"2.0",
		"generator":"Created using the official Cinema 4D glTF Exporter 1.000x284978"
	},
	"scenes":[{
		"nodes":[0]
	}],
	"nodes":[{
		"name":"car_01",
		"translation":[0.0,
		0.05000000074505806,
		0.0],
		"rotation":[0.0,
		0.0,
		0.0,
		-1.0],
		"scale":[1.0,
		1.0,
		1.0],
		"mesh":0,
		"children":[1,
		2,
		3]
	},
	{
		"name":"radiator",
		"translation":[-0.1922939419746399,
		0.009711875580251217,
		0.0],
		"rotation":[0.0,
		0.0,
		0.0,
		-1.0],
		"scale":[1.0,
		1.0,
		1.0],
		"mesh":1
	},
	{
		"name":"light_right",
		"translation":[-0.1922939419746399,
		0.0036773320753127338,
		0.06950806826353073],
		"rotation":[0.0,
		0.0,
		0.0,
		-1.0],
		"scale":[1.0,
		1.0,
		1.0],
		"mesh":2
	},
	{
		"name":"light_left",
		"translation":[-0.1922939419746399,
		0.0036773320753127338,
		-0.0689893513917923],
		"rotation":[0.0,
		0.0,
		0.0,
		-1.0],
		"scale":[1.0,
		1.0,
		1.0],
		"mesh":3
	}],
	"meshes":[{
		"name":"car_01",
		"primitives":[{
			"attributes":{
				"POSITION":1,
				"NORMAL":2,
				"TEXCOORD_0":3
			},
			"indices":0
		}]
	},
	{
		"name":"radiator",
		"primitives":[{
			"attributes":{
				"POSITION":5,
				"NORMAL":6,
				"TEXCOORD_0":7
			},
			"indices":4
		}]
	},
	{
		"name":"light_right",
		"primitives":[{
			"attributes":{
				"POSITION":9,
				"NORMAL":10,
				"TEXCOORD_0":11
			},
			"indices":8
		}]
	},
	{
		"name":"light_left",
		"primitives":[{
			"attributes":{
				"POSITION":13,
				"NORMAL":14,
				"TEXCOORD_0":15
			},
			"indices":12
		}]
	}],
	"accessors":[{
		"bufferView":0,
		"byteOffset":0,
		"type":"SCALAR",
		"componentType":5123,
		"count":696,
		"min":[0],
		"max":[273]
	},
	{
		"bufferView":1,
		"byteOffset":0,
		"type":"VEC3",
		"componentType":5126,
		"count":274,
		"min":[-0.18698352575302125,
		-0.05000000074505806,
		-0.10000000149011612],
		"max":[0.15000000596046449,
		0.14994211494922639,
		0.10000000149011612]
	},
	{
		"bufferView":1,
		"byteOffset":12,
		"type":"VEC3",
		"componentType":5126,
		"count":274,
		"min":[-1.0,
		-1.0,
		-1.0],
		"max":[1.0,
		1.0,
		1.0]
	},
	{
		"bufferView":1,
		"byteOffset":24,
		"type":"VEC2",
		"componentType":5126,
		"count":274,
		"min":[0.0,
		0.0],
		"max":[1.0,
		1.0]
	},
	{
		"bufferView":2,
		"byteOffset":0,
		"type":"SCALAR",
		"componentType":5123,
		"count":3168,
		"min":[0],
		"max":[1099]
	},
	{
		"bufferView":3,
		"byteOffset":0,
		"type":"VEC3",
		"componentType":5126,
		"count":1100,
		"min":[-0.004999999888241291,
		-0.02500000037252903,
		-0.02500000037252903],
		"max":[0.004999999888241291,
		0.02500000037252903,
		0.02500000037252903]
	},
	{
		"bufferView":3,
		"byteOffset":12,
		"type":"VEC3",
		"componentType":5126,
		"count":1100,
		"min":[-1.0,
		-1.0,
		-1.0],
		"max":[1.0,
		1.0,
		1.0]
	},
	{
		"bufferView":3,
		"byteOffset":24,
		"type":"VEC2",
		"componentType":5126,
		"count":1100,
		"min":[0.0,
		0.0],
		"max":[1.0,
		1.0]
	},
	{
		"bufferView":4,
		"byteOffset":0,
		"type":"SCALAR",
		"componentType":5123,
		"count":36,
		"min":[0],
		"max":[25]
	},
	{
		"bufferView":5,
		"byteOffset":0,
		"type":"VEC3",
		"componentType":5126,
		"count":26,
		"min":[-0.004999999888241291,
		-0.017500000074505807,
		-0.02500000037252903],
		"max":[0.004999999888241291,
		0.017500000074505807,
		0.02500000037252903]
	},
	{
		"bufferView":5,
		"byteOffset":12,
		"type":"VEC3",
		"componentType":5126,
		"count":26,
		"min":[-1.0,
		-1.0,
		-1.0],
		"max":[1.0,
		1.0,
		1.0]
	},
	{
		"bufferView":5,
		"byteOffset":24,
		"type":"VEC2",
		"componentType":5126,
		"count":26,
		"min":[0.0,
		0.0],
		"max":[1.0,
		1.0]
	},
	{
		"bufferView":6,
		"byteOffset":0,
		"type":"SCALAR",
		"componentType":5123,
		"count":36,
		"min":[0],
		"max":[25]
	},
	{
		"bufferView":7,
		"byteOffset":0,
		"type":"VEC3",
		"componentType":5126,
		"count":26,
		"min":[-0.004999999888241291,
		-0.017500000074505807,
		-0.02500000037252903],
		"max":[0.004999999888241291,
		0.017500000074505807,
		0.02500000037252903]
	},
	{
		"bufferView":7,
		"byteOffset":12,
		"type":"VEC3",
		"componentType":5126,
		"count":26,
		"min":[-1.0,
		-1.0,
		-1.0],
		"max":[1.0,
		1.0,
		1.0]
	},
	{
		"bufferView":7,
		"byteOffset":24,
		"type":"VEC2",
		"componentType":5126,
		"count":26,
		"min":[0.0,
		0.0],
		"max":[1.0,
		1.0]
	}],
	"bufferViews":[{
		"buffer":0,
		"byteOffset":0,
		"byteLength":1392,
		"target":34963
	},
	{
		"byteStride":32,
		"buffer":0,
		"byteOffset":1392,
		"byteLength":8768,
		"target":34962
	},
	{
		"buffer":1,
		"byteOffset":0,
		"byteLength":6336,
		"target":34963
	},
	{
		"byteStride":32,
		"buffer":1,
		"byteOffset":6336,
		"byteLength":35200,
		"target":34962
	},
	{
		"buffer":2,
		"byteOffset":0,
		"byteLength":72,
		"target":34963
	},
	{
		"byteStride":32,
		"buffer":2,
		"byteOffset":72,
		"byteLength":832,
		"target":34962
	},
	{
		"buffer":3,
		"byteOffset":0,
		"byteLength":72,
		"target":34963
	},
	{
		"byteStride":32,
		"buffer":3,
		"byteOffset":72,
		"byteLength":832,
		"target":34962
	}],
	"buffers":[{
		"uri":"data:application/octet-stream;base64,",
		"byteLength":10160
	},
	{
		"uri":"data:application/octet-stream;base64,",
		"byteLength":41536
	},
	{
		"uri":"data:application/octet-stream;base64,",
		"byteLength":904
	},
	{
		"uri":"data:application/octet-stream;base64,",
		"byteLength":904
	}]
}