<?xml version="1.0" encoding="UTF-8" standalone="no"?><!DOCTYPE svg PUBLIC "-//W3C//DTD SVG 1.1//EN" "http://www.w3.org/Graphics/SVG/1.1/DTD/svg11.dtd"><svg width="100%" height="100%" viewBox="0 0 100 100" version="1.1" xmlns="http://www.w3.org/2000/svg" xmlns:xlink="http://www.w3.org/1999/xlink" xml:space="preserve" xmlns:serif="http://www.serif.com/" style="fill-rule:evenodd;clip-rule:evenodd;stroke-linejoin:round;stroke-miterlimit:2;"><path d="M49.515,0c-25.322,0 -23.741,11.025 -23.741,11.025l0.028,11.423l24.165,0l-0,3.43l-33.763,-0c-0,-0 -16.204,-1.845 -16.204,23.807c0,25.654 14.143,24.744 14.143,24.744l8.441,0l-0,-11.904c-0,0 -0.455,-14.2 13.917,-14.2l23.968,0c-0,0 13.465,0.219 13.465,-13.066l0,-21.966c0,0 2.045,-13.293 -24.419,-13.293Zm-13.324,7.682c0.001,-0 0.002,-0 0.004,-0c2.382,-0 4.343,1.968 4.343,4.36c-0,0.002 -0,0.003 -0,0.004c-0,0.002 -0,0.003 -0,0.004c-0,2.392 -1.961,4.361 -4.343,4.361c-0.002,-0 -0.003,-0 -0.004,-0c-0.002,-0 -0.003,-0 -0.004,-0c-2.383,-0 -4.344,-1.969 -4.344,-4.361c0,-0.001 0,-0.002 0,-0.004c0,-0.001 0,-0.002 0,-0.004c0,-2.392 1.961,-4.36 4.344,-4.36c0.001,-0 0.002,-0 0.004,-0Z" style="fill:#fff;fill-rule:nonzero;"/><path d="M50.234,99.629c25.323,0 23.742,-11.025 23.742,-11.025l-0.028,-11.423l-24.166,0l0,-3.429l33.763,-0c0,-0 16.204,1.845 16.204,-23.809c0,-25.653 -14.143,-24.743 -14.143,-24.743l-8.441,-0l0,11.904c0,-0 0.455,14.2 -13.917,14.2l-23.967,-0c-0,-0 -13.466,-0.219 -13.466,13.066l0,21.966c0,0 -2.045,13.293 24.419,13.293l0,0Zm13.325,-7.681c-0.001,0 -0.003,0 -0.004,0c-2.383,0 -4.343,-1.968 -4.343,-4.361c-0,-0.001 -0,-0.002 -0,-0.003c-0,-0.002 -0,-0.003 -0,-0.005c-0,-2.392 1.96,-4.361 4.343,-4.361c0.001,0 0.003,0 0.004,0c0.001,0 0.002,0 0.004,0c2.382,0 4.343,1.969 4.343,4.361c0,0.002 0,0.003 0,0.004c0,0.001 0,0.003 0,0.004c0,2.392 -1.961,4.361 -4.343,4.361c-0.002,-0 -0.003,-0 -0.004,-0l-0,0Z" style="fill:#fff;fill-rule:nonzero;"/></svg>